<?xml version="1.0" standalone="no"?>
<!DOCTYPE svg PUBLIC "-//W3C//DTD SVG 20010904//EN"
 "http://www.w3.org/TR/2001/REC-SVG-20010904/DTD/svg10.dtd">
<svg version="1.0" xmlns="http://www.w3.org/2000/svg"
 width="500.000000pt" height="500.000000pt" viewBox="0 0 500.000000 500.000000"
 preserveAspectRatio="xMidYMid meet">
<metadata>
Created by potrace 1.14, written by Peter Selinger 2001-2017
</metadata>
<g transform="translate(0.000000,500.000000) scale(0.100000,-0.100000)"
fill="#000000" stroke="none">
<path d="M2220 4989 c-362 -41 -778 -190 -1080 -387 -632 -412 -1048 -1089
-1130 -1837 -13 -116 -13 -414 0 -530 107 -976 776 -1806 1701 -2109 168 -55
364 -98 524 -116 116 -13 414 -13 530 0 471 52 937 244 1304 540 515 415 849
1026 921 1685 13 116 13 414 0 530 -107 976 -776 1806 -1701 2109 -168 55
-364 98 -524 116 -106 12 -438 11 -545 -1z m589 -894 c42 -21 77 -106 115
-277 5 -23 12 -28 36 -28 45 0 205 -55 294 -100 99 -51 188 -114 250 -177 90
-91 132 -83 -426 -83 -271 0 -639 3 -817 7 l-325 6 35 29 c81 69 228 175 298
215 76 43 89 48 193 77 52 15 57 19 72 59 9 23 23 73 32 111 26 115 41 134
129 162 54 17 81 17 114 -1z m822 -897 c25 -10 63 -37 84 -58 l37 -38 47 29
c138 88 306 85 501 -8 123 -59 200 -135 259 -255 57 -116 72 -182 78 -338 8
-207 -25 -349 -125 -545 -82 -160 -249 -347 -397 -447 -80 -54 -336 -188 -361
-188 -5 0 -25 -24 -44 -53 -61 -91 -121 -144 -186 -164 -55 -17 -113 -18 -869
-16 -800 2 -811 2 -867 23 -76 28 -123 82 -229 261 -109 183 -138 210 -301
274 -313 122 -336 135 -401 233 -49 73 -288 511 -362 663 l-46 94 36 3 c20 2
91 -1 158 -7 154 -13 195 -32 299 -140 138 -142 232 -167 371 -98 162 81 319
206 413 330 68 90 130 225 160 350 l27 107 36 1 c20 1 95 5 166 9 72 4 432 5
800 3 635 -5 672 -6 716 -25z"/>
<path d="M3985 3010 c-45 -7 -115 -40 -135 -65 -11 -14 -11 -27 4 -88 63 -271
62 -724 -4 -1127 -11 -69 -23 -133 -26 -143 -5 -15 -2 -15 30 4 20 11 42 22
50 23 52 7 233 159 321 268 160 200 235 395 235 614 0 154 -44 291 -122 380
-78 89 -242 151 -353 134z"/>
</g>
</svg>
